<svg xmlns="http://www.w3.org/2000/svg" xmlns:xlink="http://www.w3.org/1999/xlink" width="500" zoomAndPan="magnify" viewBox="0 0 375 374.999991" height="500" preserveAspectRatio="xMidYMid meet" version="1.0"><path fill="#ffffff" d="M 187.5 0 C 184.429688 0 181.363281 0.0742188 178.300781 0.226562 C 175.234375 0.375 172.175781 0.601562 169.121094 0.902344 C 166.066406 1.203125 163.023438 1.578125 159.988281 2.03125 C 156.953125 2.480469 153.929688 3.003906 150.921875 3.601562 C 147.910156 4.203125 144.917969 4.875 141.941406 5.617188 C 138.964844 6.363281 136.007812 7.183594 133.070312 8.074219 C 130.136719 8.964844 127.222656 9.925781 124.332031 10.960938 C 121.445312 11.996094 118.582031 13.097656 115.746094 14.273438 C 112.910156 15.445312 110.105469 16.691406 107.332031 18.003906 C 104.558594 19.3125 101.820312 20.691406 99.113281 22.140625 C 96.40625 23.585938 93.738281 25.097656 91.105469 26.675781 C 88.472656 28.253906 85.882812 29.894531 83.332031 31.597656 C 80.777344 33.304688 78.269531 35.070312 75.804688 36.898438 C 73.339844 38.726562 70.921875 40.613281 68.550781 42.558594 C 66.179688 44.507812 63.855469 46.511719 61.582031 48.570312 C 59.308594 50.632812 57.085938 52.746094 54.917969 54.917969 C 52.746094 57.085938 50.632812 59.308594 48.570312 61.582031 C 46.511719 63.855469 44.507812 66.179688 42.558594 68.550781 C 40.613281 70.921875 38.726562 73.339844 36.898438 75.804688 C 35.070312 78.269531 33.304688 80.777344 31.597656 83.332031 C 29.894531 85.882812 28.253906 88.472656 26.675781 91.105469 C 25.097656 93.738281 23.585938 96.40625 22.140625 99.113281 C 20.691406 101.820312 19.3125 104.558594 18.003906 107.332031 C 16.691406 110.105469 15.445312 112.910156 14.273438 115.746094 C 13.097656 118.582031 11.996094 121.445312 10.960938 124.332031 C 9.925781 127.222656 8.964844 130.136719 8.074219 133.070312 C 7.183594 136.007812 6.363281 138.964844 5.621094 141.941406 C 4.875 144.917969 4.203125 147.910156 3.601562 150.921875 C 3.003906 153.929688 2.480469 156.953125 2.03125 159.988281 C 1.578125 163.023438 1.203125 166.066406 0.902344 169.121094 C 0.601562 172.175781 0.375 175.234375 0.226562 178.300781 C 0.0742188 181.363281 0 184.429688 0 187.5 C 0 190.570312 0.0742188 193.636719 0.226562 196.699219 C 0.375 199.765625 0.601562 202.824219 0.902344 205.878906 C 1.203125 208.933594 1.578125 211.976562 2.03125 215.011719 C 2.480469 218.046875 3.003906 221.070312 3.601562 224.078125 C 4.203125 227.089844 4.875 230.082031 5.621094 233.058594 C 6.363281 236.035156 7.183594 238.992188 8.074219 241.929688 C 8.964844 244.863281 9.925781 247.777344 10.960938 250.667969 C 11.996094 253.554688 13.097656 256.417969 14.273438 259.253906 C 15.445312 262.089844 16.691406 264.894531 18.003906 267.667969 C 19.3125 270.441406 20.691406 273.179688 22.140625 275.886719 C 23.585938 278.59375 25.097656 281.261719 26.675781 283.894531 C 28.253906 286.527344 29.894531 289.117188 31.597656 291.667969 C 33.304688 294.222656 35.070312 296.730469 36.898438 299.195312 C 38.726562 301.660156 40.613281 304.078125 42.558594 306.449219 C 44.507812 308.820312 46.511719 311.144531 48.570312 313.417969 C 50.632812 315.691406 52.746094 317.914062 54.917969 320.082031 C 57.085938 322.253906 59.308594 324.367188 61.582031 326.429688 C 63.855469 328.488281 66.179688 330.492188 68.550781 332.441406 C 70.921875 334.386719 73.339844 336.273438 75.804688 338.101562 C 78.269531 339.929688 80.777344 341.695312 83.332031 343.402344 C 85.882812 345.105469 88.472656 346.746094 91.105469 348.324219 C 93.738281 349.902344 96.40625 351.414062 99.113281 352.859375 C 101.820312 354.308594 104.558594 355.6875 107.332031 356.996094 C 110.105469 358.308594 112.910156 359.554688 115.746094 360.726562 C 118.582031 361.902344 121.445312 363.003906 124.332031 364.039062 C 127.222656 365.074219 130.136719 366.035156 133.070312 366.925781 C 136.007812 367.816406 138.964844 368.636719 141.941406 369.378906 C 144.917969 370.125 147.910156 370.796875 150.921875 371.398438 C 153.929688 371.996094 156.953125 372.519531 159.988281 372.96875 C 163.023438 373.421875 166.066406 373.796875 169.121094 374.097656 C 172.175781 374.398438 175.234375 374.625 178.300781 374.773438 C 181.363281 374.925781 184.429688 375 187.5 375 C 190.570312 375 193.636719 374.925781 196.699219 374.773438 C 199.765625 374.625 202.824219 374.398438 205.878906 374.097656 C 208.933594 373.796875 211.976562 373.421875 215.011719 372.96875 C 218.046875 372.519531 221.070312 371.996094 224.078125 371.398438 C 227.089844 370.796875 230.082031 370.125 233.058594 369.378906 C 236.035156 368.636719 238.992188 367.816406 241.929688 366.925781 C 244.863281 366.035156 247.777344 365.074219 250.667969 364.039062 C 253.554688 363.003906 256.417969 361.902344 259.253906 360.726562 C 262.089844 359.554688 264.894531 358.308594 267.667969 356.996094 C 270.441406 355.6875 273.179688 354.308594 275.886719 352.859375 C 278.59375 351.414062 281.261719 349.902344 283.894531 348.324219 C 286.527344 346.746094 289.117188 345.105469 291.667969 343.402344 C 294.222656 341.695312 296.730469 339.929688 299.195312 338.101562 C 301.660156 336.273438 304.078125 334.386719 306.449219 332.4375 C 308.820312 330.492188 311.144531 328.488281 313.417969 326.429688 C 315.691406 324.367188 317.914062 322.253906 320.082031 320.082031 C 322.253906 317.914062 324.367188 315.691406 326.429688 313.417969 C 328.488281 311.144531 330.492188 308.820312 332.441406 306.449219 C 334.386719 304.078125 336.273438 301.660156 338.101562 299.195312 C 339.929688 296.730469 341.695312 294.222656 343.402344 291.667969 C 345.105469 289.117188 346.746094 286.527344 348.324219 283.894531 C 349.902344 281.261719 351.414062 278.59375 352.859375 275.886719 C 354.308594 273.179688 355.6875 270.441406 356.996094 267.667969 C 358.308594 264.894531 359.554688 262.089844 360.726562 259.253906 C 361.902344 256.417969 363.003906 253.554688 364.039062 250.667969 C 365.074219 247.777344 366.035156 244.863281 366.925781 241.929688 C 367.816406 238.992188 368.636719 236.035156 369.378906 233.058594 C 370.125 230.082031 370.796875 227.089844 371.398438 224.078125 C 371.996094 221.070312 372.519531 218.046875 372.96875 215.011719 C 373.421875 211.976562 373.796875 208.933594 374.097656 205.878906 C 374.398438 202.824219 374.625 199.765625 374.773438 196.699219 C 374.925781 193.636719 375 190.570312 375 187.5 C 375 184.429688 374.925781 181.363281 374.773438 178.300781 C 374.621094 175.234375 374.394531 172.175781 374.09375 169.121094 C 373.792969 166.070312 373.417969 163.023438 372.96875 159.988281 C 372.515625 156.953125 371.992188 153.933594 371.394531 150.921875 C 370.792969 147.914062 370.121094 144.917969 369.375 141.941406 C 368.628906 138.96875 367.8125 136.011719 366.921875 133.074219 C 366.03125 130.136719 365.066406 127.226562 364.035156 124.335938 C 363 121.445312 361.894531 118.585938 360.722656 115.75 C 359.546875 112.914062 358.304688 110.113281 356.992188 107.335938 C 355.679688 104.5625 354.300781 101.824219 352.851562 99.117188 C 351.40625 96.410156 349.894531 93.742188 348.316406 91.109375 C 346.738281 88.480469 345.097656 85.886719 343.394531 83.335938 C 341.6875 80.785156 339.921875 78.277344 338.09375 75.8125 C 336.265625 73.347656 334.378906 70.929688 332.433594 68.558594 C 330.484375 66.1875 328.480469 63.863281 326.421875 61.589844 C 324.359375 59.316406 322.246094 57.09375 320.074219 54.925781 C 317.90625 52.753906 315.683594 50.640625 313.410156 48.578125 C 311.136719 46.519531 308.8125 44.515625 306.441406 42.566406 C 304.070312 40.621094 301.652344 38.734375 299.1875 36.90625 C 296.722656 35.078125 294.214844 33.3125 291.664062 31.605469 C 289.113281 29.902344 286.519531 28.261719 283.890625 26.683594 C 281.257812 25.105469 278.589844 23.59375 275.882812 22.148438 C 273.175781 20.699219 270.4375 19.320312 267.664062 18.007812 C 264.886719 16.695312 262.085938 15.453125 259.25 14.277344 C 256.414062 13.105469 253.550781 12 250.664062 10.964844 C 247.773438 9.933594 244.863281 8.96875 241.925781 8.078125 C 238.988281 7.1875 236.03125 6.371094 233.058594 5.625 C 230.082031 4.878906 227.085938 4.207031 224.078125 3.605469 C 221.066406 3.007812 218.046875 2.484375 215.011719 2.03125 C 211.976562 1.582031 208.929688 1.207031 205.878906 0.90625 C 202.824219 0.605469 199.765625 0.378906 196.699219 0.226562 C 193.636719 0.0742188 190.570312 0 187.5 0 Z M 101.132812 94.980469 L 273.867188 94.980469 C 274.78125 94.980469 275.691406 95.019531 276.597656 95.101562 C 277.507812 95.179688 278.410156 95.300781 279.308594 95.460938 C 280.207031 95.625 281.097656 95.824219 281.976562 96.0625 C 282.859375 96.304688 283.726562 96.582031 284.582031 96.898438 C 285.4375 97.214844 286.277344 97.570312 287.101562 97.960938 C 287.925781 98.351562 288.730469 98.78125 289.515625 99.242188 C 290.304688 99.707031 291.066406 100.203125 291.808594 100.734375 C 292.550781 101.265625 293.269531 101.828125 293.960938 102.425781 C 294.652344 103.019531 295.316406 103.644531 295.953125 104.296875 C 296.589844 104.949219 297.195312 105.632812 297.769531 106.339844 C 298.347656 107.046875 298.890625 107.777344 299.402344 108.535156 C 299.914062 109.292969 300.390625 110.070312 300.832031 110.867188 C 301.273438 111.664062 301.679688 112.480469 302.046875 113.316406 C 302.417969 114.148438 302.75 115 303.042969 115.863281 C 303.335938 116.726562 303.589844 117.601562 303.808594 118.488281 C 304.023438 119.375 304.199219 120.269531 304.335938 121.171875 C 301.875 122.519531 206.953125 177.246094 200.683594 180.820312 C 199.683594 181.386719 198.648438 181.886719 197.582031 182.320312 C 196.519531 182.753906 195.429688 183.117188 194.316406 183.410156 C 193.203125 183.703125 192.078125 183.921875 190.9375 184.070312 C 189.796875 184.21875 188.648438 184.292969 187.5 184.292969 C 186.351562 184.292969 185.203125 184.21875 184.0625 184.070312 C 182.921875 183.921875 181.796875 183.703125 180.683594 183.410156 C 179.570312 183.117188 178.480469 182.753906 177.417969 182.320312 C 176.351562 181.886719 175.316406 181.386719 174.316406 180.820312 C 168.164062 177.304688 73.007812 123.105469 70.664062 121.640625 C 70.785156 120.726562 70.949219 119.820312 71.152344 118.921875 C 71.355469 118.023438 71.601562 117.136719 71.882812 116.261719 C 72.167969 115.382812 72.492188 114.523438 72.851562 113.675781 C 73.210938 112.828125 73.609375 111.996094 74.046875 111.183594 C 74.484375 110.375 74.953125 109.582031 75.460938 108.8125 C 75.96875 108.042969 76.507812 107.296875 77.082031 106.578125 C 77.65625 105.855469 78.261719 105.164062 78.894531 104.496094 C 79.53125 103.832031 80.195312 103.195312 80.890625 102.585938 C 81.582031 101.980469 82.304688 101.40625 83.046875 100.863281 C 83.792969 100.320312 84.5625 99.816406 85.351562 99.339844 C 86.140625 98.867188 86.953125 98.433594 87.78125 98.03125 C 88.613281 97.632812 89.457031 97.269531 90.320312 96.945312 C 91.183594 96.621094 92.058594 96.335938 92.945312 96.089844 C 93.835938 95.847656 94.730469 95.640625 95.636719 95.476562 C 96.542969 95.3125 97.457031 95.1875 98.375 95.105469 C 99.292969 95.023438 100.210938 94.980469 101.132812 94.980469 Z M 304.6875 249.199219 C 304.6875 250.207031 304.636719 251.214844 304.535156 252.21875 C 304.4375 253.222656 304.285156 254.21875 304.089844 255.210938 C 303.890625 256.199219 303.644531 257.175781 303.351562 258.140625 C 303.058594 259.105469 302.71875 260.054688 302.332031 260.988281 C 301.945312 261.917969 301.511719 262.832031 301.039062 263.71875 C 300.5625 264.609375 300.042969 265.472656 299.480469 266.3125 C 298.921875 267.152344 298.320312 267.960938 297.679688 268.742188 C 297.039062 269.519531 296.363281 270.269531 295.648438 270.980469 C 294.9375 271.695312 294.1875 272.371094 293.410156 273.011719 C 292.628906 273.652344 291.820312 274.253906 290.980469 274.8125 C 290.140625 275.375 289.277344 275.894531 288.386719 276.371094 C 287.5 276.84375 286.585938 277.277344 285.65625 277.664062 C 284.722656 278.050781 283.773438 278.390625 282.808594 278.683594 C 281.84375 278.976562 280.867188 279.222656 279.878906 279.421875 C 278.886719 279.617188 277.890625 279.769531 276.886719 279.867188 C 275.882812 279.96875 274.875 280.019531 273.867188 280.019531 L 101.132812 280.019531 C 100.125 280.019531 99.117188 279.96875 98.113281 279.867188 C 97.109375 279.769531 96.113281 279.617188 95.121094 279.421875 C 94.132812 279.222656 93.15625 278.976562 92.191406 278.683594 C 91.226562 278.390625 90.277344 278.050781 89.34375 277.664062 C 88.414062 277.277344 87.5 276.84375 86.613281 276.371094 C 85.722656 275.894531 84.859375 275.375 84.019531 274.8125 C 83.179688 274.253906 82.371094 273.652344 81.589844 273.011719 C 80.8125 272.371094 80.0625 271.695312 79.351562 270.980469 C 78.636719 270.269531 77.960938 269.519531 77.320312 268.742188 C 76.679688 267.960938 76.078125 267.152344 75.519531 266.3125 C 74.957031 265.472656 74.4375 264.609375 73.960938 263.71875 C 73.488281 262.832031 73.054688 261.917969 72.667969 260.988281 C 72.28125 260.054688 71.941406 259.105469 71.648438 258.140625 C 71.355469 257.175781 71.109375 256.199219 70.910156 255.210938 C 70.714844 254.21875 70.5625 253.222656 70.464844 252.21875 C 70.363281 251.214844 70.3125 250.207031 70.3125 249.199219 L 70.3125 135.644531 L 168.28125 191.542969 C 169.742188 192.375 171.25 193.109375 172.804688 193.746094 C 174.359375 194.382812 175.949219 194.914062 177.574219 195.34375 C 179.199219 195.773438 180.84375 196.097656 182.507812 196.316406 C 184.175781 196.53125 185.847656 196.640625 187.53125 196.640625 C 189.210938 196.640625 190.882812 196.53125 192.550781 196.316406 C 194.214844 196.097656 195.859375 195.773438 197.484375 195.34375 C 199.109375 194.914062 200.699219 194.382812 202.253906 193.746094 C 203.808594 193.109375 205.316406 192.375 206.777344 191.542969 L 304.6875 135.175781 Z M 304.6875 249.199219 " fill-opacity="1" fill-rule="nonzero"/></svg>