<svg xmlns="http://www.w3.org/2000/svg" xmlns:xlink="http://www.w3.org/1999/xlink" width="500" zoomAndPan="magnify" viewBox="0 0 375 374.999991" height="500" preserveAspectRatio="xMidYMid meet" version="1.0"><defs><clipPath id="49cd1bb5fb"><path d="M 70 156.832031 L 117.300781 156.832031 L 117.300781 168.238281 L 70 168.238281 Z M 70 156.832031 " clip-rule="nonzero"/></clipPath><clipPath id="f1cdf3a514"><path d="M 115.199219 168.226562 C 94.425781 167.476562 88.199219 163.351562 83.101562 162.300781 C 78.976562 161.476562 73.574219 162.898438 71.625 161.773438 C 70.648438 161.25 69.976562 160.199219 70.050781 159.449219 C 70.050781 158.699219 71.101562 157.574219 71.851562 157.351562 C 72.449219 157.125 73.5 157.5 73.949219 157.949219 C 74.398438 158.324219 74.699219 159.375 74.625 159.976562 C 74.550781 160.574219 73.800781 161.398438 73.273438 161.699219 C 72.898438 161.925781 72.300781 162.074219 71.851562 161.851562 C 71.175781 161.625 70.050781 160.5 70.050781 159.75 C 69.976562 159 70.648438 157.875 71.625 157.425781 C 73.425781 156.449219 78.074219 156.976562 81.976562 157.648438 C 87.449219 158.625 95.023438 163.199219 101.101562 164.175781 C 106.199219 164.925781 113.550781 162.75 115.800781 163.875 C 116.773438 164.398438 117.148438 165.375 117.226562 166.050781 C 117.300781 166.574219 117 167.101562 116.625 167.476562 C 116.324219 167.851562 115.199219 168.226562 115.199219 168.226562 " clip-rule="nonzero"/></clipPath><clipPath id="194209e9f7"><path d="M 69.839844 176.488281 L 120.109375 176.488281 L 120.109375 186.410156 L 69.839844 186.410156 Z M 69.839844 176.488281 " clip-rule="nonzero"/></clipPath><clipPath id="aafce36623"><path d="M 118.648438 180.898438 C 109.5 184.050781 103.273438 185.476562 98.324219 186 C 93.675781 186.523438 88.574219 186.449219 84.375 186.226562 C 81 186 77.625 185.476562 75.074219 184.800781 C 73.199219 184.351562 71.023438 184.125 70.351562 183.148438 C 69.824219 182.398438 69.976562 180.824219 70.351562 180.148438 C 70.726562 179.550781 71.773438 179.101562 72.449219 179.175781 C 73.125 179.175781 74.101562 179.773438 74.476562 180.375 C 74.773438 180.976562 74.773438 182.101562 74.550781 182.699219 C 74.398438 183.148438 73.949219 183.601562 73.5 183.824219 C 72.898438 184.050781 71.773438 184.125 71.175781 183.824219 C 70.574219 183.523438 69.898438 182.625 69.898438 181.875 C 69.824219 181.125 70.425781 179.773438 71.398438 179.324219 C 73.574219 178.351562 79.949219 180.976562 84.375 181.351562 C 89.023438 181.726562 94.199219 181.800781 98.851562 181.351562 C 103.199219 180.898438 108 179.851562 111.523438 178.949219 C 114.074219 178.199219 116.699219 176.476562 118.125 176.550781 C 118.800781 176.625 119.175781 176.925781 119.550781 177.300781 C 119.851562 177.675781 120.148438 178.273438 120.074219 178.800781 C 120 179.476562 118.648438 180.898438 118.648438 180.898438 " clip-rule="nonzero"/></clipPath><clipPath id="1cfa045f8a"><path d="M 276.445312 143.542969 L 309.359375 143.542969 L 309.359375 171.679688 L 276.445312 171.679688 Z M 276.445312 143.542969 " clip-rule="nonzero"/></clipPath><clipPath id="dbac46a1ad"><path d="M 277.273438 167.699219 C 289.199219 160.574219 291.449219 160.050781 293.625 158.773438 C 295.875 157.425781 298.273438 156 300.148438 153.898438 C 302.175781 151.425781 303.75 146.023438 305.023438 144.601562 C 305.476562 144.074219 305.851562 143.851562 306.300781 143.699219 C 306.75 143.625 307.351562 143.625 307.875 143.851562 C 308.398438 144.074219 309.148438 144.898438 309.300781 145.574219 C 309.449219 146.25 309.148438 147.300781 308.699219 147.75 C 308.25 148.273438 307.125 148.574219 306.523438 148.5 C 306 148.425781 305.476562 148.199219 305.175781 147.75 C 304.726562 147.300781 304.351562 146.175781 304.574219 145.574219 C 304.800781 144.824219 306.074219 143.773438 306.824219 143.625 C 307.5 143.550781 308.476562 144.074219 308.851562 144.601562 C 309.300781 145.125 309.375 146.023438 309.226562 146.851562 C 309.074219 148.050781 308.175781 149.699219 307.425781 151.050781 C 306.675781 152.476562 305.851562 153.824219 304.648438 155.25 C 303.148438 156.976562 301.050781 159.074219 298.726562 160.648438 C 295.949219 162.523438 291.976562 163.574219 288.824219 165.375 C 285.523438 167.25 281.476562 171.375 279.226562 171.601562 C 278.101562 171.75 276.898438 171.148438 276.523438 170.550781 C 276.226562 169.875 277.273438 167.699219 277.273438 167.699219 " clip-rule="nonzero"/></clipPath><clipPath id="0fc5829da7"><path d="M 280.417969 157 L 318.050781 157 L 318.050781 186.695312 L 280.417969 186.695312 Z M 280.417969 157 " clip-rule="nonzero"/></clipPath><clipPath id="18b35f0dca"><path d="M 282.148438 182.25 C 299.699219 175.425781 301.050781 174.375 302.699219 173.101562 C 304.351562 171.75 305.773438 170.550781 307.425781 168.601562 C 309.75 165.75 312.75 158.023438 314.773438 157.199219 C 315.601562 156.824219 316.574219 157.199219 317.101562 157.648438 C 317.699219 158.25 317.925781 159.898438 317.773438 160.648438 C 317.625 161.175781 317.175781 161.625 316.648438 161.851562 C 316.050781 162.074219 314.851562 162.074219 314.25 161.851562 C 313.800781 161.625 313.351562 161.175781 313.199219 160.648438 C 312.976562 160.050781 312.898438 158.851562 313.273438 158.324219 C 313.800781 157.648438 315.375 157.050781 316.125 157.199219 C 316.800781 157.273438 317.625 158.175781 317.851562 158.773438 C 318.074219 159.300781 318.074219 159.675781 317.851562 160.425781 C 317.398438 162.226562 314.625 166.800781 312.675781 169.574219 C 310.800781 172.125 308.851562 174.523438 306.601562 176.398438 C 304.5 178.125 302.625 179.101562 299.773438 180.449219 C 295.574219 182.476562 286.273438 186.449219 283.425781 186.675781 C 282.375 186.75 281.773438 186.601562 281.324219 186.226562 C 280.875 185.925781 280.574219 185.324219 280.5 184.875 C 280.425781 184.351562 280.574219 183.675781 280.800781 183.226562 C 281.101562 182.851562 282.148438 182.25 282.148438 182.25 " clip-rule="nonzero"/></clipPath></defs><path fill="#ffffff" d="M 187.5 0 C 83.945312 0 0 83.945312 0 187.5 C 0 291.054688 83.945312 375 187.5 375 C 291.054688 375 375 291.054688 375 187.5 C 375 83.945312 291.054688 0 187.5 0 Z M 187.5 360.796875 C 91.789062 360.796875 14.203125 283.210938 14.203125 187.5 C 14.203125 91.789062 91.789062 14.203125 187.5 14.203125 C 283.210938 14.203125 360.796875 91.789062 360.796875 187.5 C 360.796875 283.210938 283.210938 360.796875 187.5 360.796875 Z M 187.5 360.796875 " fill-opacity="1" fill-rule="nonzero"/><path fill="#ffffff" d="M 165.492188 279.40625 C 160.792969 279.859375 157.035156 280.375 153.261719 280.554688 C 131.867188 281.566406 116.03125 273.132812 106.425781 253.464844 C 103.367188 247.199219 99.449219 241.289062 95.371094 235.617188 C 92.921875 232.207031 89.488281 229.46875 86.320312 226.628906 L 86.28125 226.597656 C 84.320312 224.871094 85.1875 221.644531 87.761719 221.210938 C 90.785156 220.703125 93.601562 221.25 96.347656 221.949219 C 104.949219 224.140625 110.472656 230.238281 114.871094 237.53125 C 124.820312 254.027344 141.953125 260.90625 160.480469 255.992188 C 163.625 255.15625 165.011719 253.804688 165.699219 250.375 C 166.496094 246.371094 167.582031 242.429688 168.75 238.410156 C 168.921875 237.816406 169.03125 237.214844 169.078125 236.597656 C 169.128906 235.984375 169.113281 235.371094 169.039062 234.757812 C 168.964844 234.148438 168.828125 233.546875 168.628906 232.964844 C 168.433594 232.378906 168.179688 231.820312 167.867188 231.289062 C 167.558594 230.757812 167.195312 230.261719 166.785156 229.800781 C 166.371094 229.34375 165.917969 228.929688 165.421875 228.5625 C 164.925781 228.195312 164.398438 227.882812 163.839844 227.625 C 163.28125 227.363281 162.703125 227.164062 162.101562 227.023438 L 162 226.996094 C 142.773438 222.398438 126.167969 213.835938 115.46875 196.265625 C 109.746094 186.875 106.914062 176.527344 107.0625 165.746094 C 107.226562 153.515625 108.308594 141.257812 109.714844 129.09375 C 110.703125 120.53125 114.667969 112.945312 120.828125 106.789062 C 122.972656 104.640625 123.15625 102.84375 122.117188 100.0625 C 117.878906 88.683594 118.617188 77.28125 122.378906 65.878906 C 123.441406 62.660156 124.949219 62.199219 128.027344 63.167969 C 137.550781 66.167969 144.65625 72.363281 150.902344 79.789062 L 150.96875 79.863281 C 151.75 80.808594 152.65625 81.613281 153.683594 82.285156 C 154.710938 82.957031 155.8125 83.460938 156.992188 83.800781 C 158.167969 84.144531 159.371094 84.304688 160.597656 84.285156 C 161.824219 84.261719 163.019531 84.0625 164.1875 83.6875 C 183.953125 77.203125 213.941406 77.117188 232.585938 83.53125 C 233.757812 83.929688 234.960938 84.144531 236.195312 84.179688 C 237.433594 84.210938 238.648438 84.058594 239.839844 83.726562 C 241.027344 83.390625 242.144531 82.886719 243.183594 82.214844 C 244.21875 81.542969 245.136719 80.730469 245.929688 79.78125 L 245.988281 79.707031 C 252.242188 72.285156 259.382812 66.136719 268.898438 63.128906 C 272.09375 62.121094 273.453125 62.890625 274.464844 65.996094 C 278.179688 77.402344 278.8125 88.738281 274.792969 100.238281 C 274.230469 101.855469 274.253906 104.671875 275.257812 105.691406 C 283.792969 114.351562 287.53125 125.097656 288.476562 136.742188 C 289.394531 147.992188 290.386719 159.433594 289.339844 170.605469 C 286.625 199.65625 268.960938 216.578125 242.097656 224.988281 C 239.800781 225.710938 237.464844 226.3125 235.082031 226.875 C 234.460938 227.023438 233.863281 227.230469 233.285156 227.503906 C 232.710938 227.777344 232.167969 228.105469 231.664062 228.488281 C 231.15625 228.875 230.695312 229.308594 230.277344 229.792969 C 229.863281 230.273438 229.5 230.796875 229.195312 231.351562 C 228.886719 231.910156 228.640625 232.496094 228.457031 233.105469 C 228.273438 233.714844 228.15625 234.335938 228.101562 234.972656 C 228.050781 235.605469 228.0625 236.242188 228.140625 236.871094 C 228.222656 237.503906 228.367188 238.121094 228.574219 238.722656 C 232.234375 249.328125 231.675781 260.65625 231.617188 271.910156 C 231.605469 274.496094 231.597656 277.085938 231.589844 279.675781 C 231.589844 280.746094 231.535156 281.8125 231.425781 282.875 C 231.320312 283.9375 231.160156 284.992188 230.953125 286.042969 C 230.742188 287.089844 230.480469 288.125 230.167969 289.148438 C 229.855469 290.167969 229.492188 291.171875 229.082031 292.160156 C 228.671875 293.148438 228.214844 294.113281 227.710938 295.054688 C 227.203125 295.996094 226.652344 296.910156 226.058594 297.796875 C 225.464844 298.6875 224.828125 299.542969 224.148438 300.367188 C 223.46875 301.191406 222.75 301.984375 221.996094 302.738281 C 221.238281 303.492188 220.445312 304.210938 219.617188 304.886719 C 218.792969 305.5625 217.933594 306.199219 217.042969 306.792969 C 216.15625 307.386719 215.238281 307.933594 214.296875 308.4375 C 213.351562 308.941406 212.386719 309.394531 211.398438 309.804688 C 210.414062 310.210938 209.40625 310.570312 208.382812 310.882812 C 207.359375 311.191406 206.324219 311.449219 205.277344 311.660156 C 204.230469 311.867188 203.171875 312.023438 202.109375 312.128906 C 201.046875 312.230469 199.980469 312.285156 198.910156 312.285156 L 198.175781 312.285156 C 197.105469 312.285156 196.035156 312.230469 194.96875 312.125 C 193.90625 312.023438 192.847656 311.863281 191.796875 311.65625 C 190.75 311.449219 189.710938 311.1875 188.6875 310.875 C 187.664062 310.566406 186.65625 310.207031 185.667969 309.796875 C 184.679688 309.386719 183.710938 308.929688 182.769531 308.425781 C 181.824219 307.921875 180.90625 307.371094 180.015625 306.777344 C 179.128906 306.183594 178.269531 305.542969 177.441406 304.867188 C 176.613281 304.1875 175.820312 303.46875 175.066406 302.710938 C 174.308594 301.957031 173.589844 301.164062 172.910156 300.335938 C 172.230469 299.507812 171.59375 298.648438 171 297.757812 C 170.40625 296.871094 169.855469 295.953125 169.351562 295.007812 C 168.847656 294.066406 168.390625 293.097656 167.980469 292.109375 C 167.570312 291.121094 167.210938 290.113281 166.898438 289.089844 C 166.589844 288.066406 166.328125 287.027344 166.121094 285.976562 C 165.910156 284.929688 165.753906 283.871094 165.648438 282.804688 C 165.546875 281.742188 165.492188 280.671875 165.492188 279.601562 Z M 165.492188 279.40625 " fill-opacity="1" fill-rule="nonzero"/><g clip-path="url(#49cd1bb5fb)"><g clip-path="url(#f1cdf3a514)"><path fill="#ffffff" d="M 67.050781 154.351562 L 120.320312 154.351562 L 120.320312 171.523438 L 67.050781 171.523438 Z M 67.050781 154.351562 " fill-opacity="1" fill-rule="nonzero"/></g></g><g clip-path="url(#194209e9f7)"><g clip-path="url(#aafce36623)"><path fill="#ffffff" d="M 66.898438 173.550781 L 123.171875 173.550781 L 123.171875 189.226562 L 66.898438 189.226562 Z M 66.898438 173.550781 " fill-opacity="1" fill-rule="nonzero"/></g></g><g clip-path="url(#1cfa045f8a)"><g clip-path="url(#dbac46a1ad)"><path fill="#ffffff" d="M 273.523438 140.625 L 312.277344 140.625 L 312.277344 174.601562 L 273.523438 174.601562 Z M 273.523438 140.625 " fill-opacity="1" fill-rule="nonzero"/></g></g><g clip-path="url(#0fc5829da7)"><g clip-path="url(#18b35f0dca)"><path fill="#ffffff" d="M 277.5 154.199219 L 320.964844 154.199219 L 320.964844 189.75 L 277.5 189.75 Z M 277.5 154.199219 " fill-opacity="1" fill-rule="nonzero"/></g></g></svg>