<svg xmlns="http://www.w3.org/2000/svg" xmlns:xlink="http://www.w3.org/1999/xlink" width="500" zoomAndPan="magnify" viewBox="0 0 375 374.999991" height="500" preserveAspectRatio="xMidYMid meet" version="1.0"><defs><g/></defs><rect x="-37.5" width="450" fill="#ffffff" y="-37.499999" height="449.999989" fill-opacity="1"/><rect x="-37.5" width="450" fill="#eeeeee" y="-37.499999" height="449.999989" fill-opacity="1"/><g fill="#000000" fill-opacity="1"><g transform="translate(30.481433, 301.21288)"><g><path d="M 49.484375 3.234375 C 43.015625 3.234375 37.835938 1.832031 33.953125 -0.96875 C 30.078125 -3.769531 27.222656 -7.597656 25.390625 -12.453125 C 23.554688 -17.304688 22.640625 -22.75 22.640625 -28.78125 C 22.640625 -42.789062 22.53125 -54.59375 22.3125 -64.1875 C 22.09375 -73.789062 21.929688 -82.148438 21.828125 -89.265625 C 21.722656 -96.378906 21.5625 -103.0625 21.34375 -109.3125 C 21.125 -115.5625 21.015625 -122.242188 21.015625 -129.359375 C 21.015625 -136.046875 22.09375 -142.191406 24.25 -147.796875 C 26.40625 -153.398438 29.910156 -157.816406 34.765625 -161.046875 C 39.617188 -164.285156 45.816406 -165.90625 53.359375 -165.90625 C 60.910156 -165.90625 66.84375 -163.476562 71.15625 -158.625 C 75.46875 -153.78125 77.726562 -146.289062 77.9375 -136.15625 C 77.9375 -131.84375 77.882812 -125.910156 77.78125 -118.359375 C 77.675781 -110.816406 77.457031 -102.460938 77.125 -93.296875 C 76.800781 -84.140625 76.476562 -74.976562 76.15625 -65.8125 C 75.832031 -56.644531 75.5625 -48.179688 75.34375 -40.421875 C 75.132812 -32.660156 75.03125 -26.410156 75.03125 -21.671875 C 75.03125 -14.554688 72.976562 -8.625 68.875 -3.875 C 64.78125 0.863281 58.316406 3.234375 49.484375 3.234375 Z M 53.375 -186.609375 C 42.375 -186.609375 33.53125 -189.460938 26.84375 -195.171875 C 20.164062 -200.890625 16.828125 -207.84375 16.828125 -216.03125 C 16.828125 -224.875 19.789062 -231.664062 25.71875 -236.40625 C 31.644531 -241.15625 39.242188 -243.53125 48.515625 -243.53125 C 55.847656 -243.53125 61.992188 -241.910156 66.953125 -238.671875 C 71.910156 -235.441406 75.734375 -231.453125 78.421875 -226.703125 C 81.117188 -221.960938 82.46875 -217.222656 82.46875 -212.484375 C 82.46875 -206.222656 80.257812 -200.34375 75.84375 -194.84375 C 71.425781 -189.351562 63.9375 -186.609375 53.375 -186.609375 Z M 53.375 -186.609375 "/></g></g></g><g fill="#000000" fill-opacity="1"><g transform="translate(129.433307, 301.21288)"><g><path d="M 183.6875 3.234375 C 174.632812 3.234375 166.820312 -0.375 160.25 -7.59375 C 153.675781 -14.820312 148.609375 -25.601562 145.046875 -39.9375 C 141.492188 -54.28125 139.71875 -72.445312 139.71875 -94.4375 C 139.71875 -99.613281 139.609375 -103.976562 139.390625 -107.53125 C 139.171875 -111.09375 138.628906 -114.054688 137.765625 -116.421875 C 136.910156 -118.796875 135.726562 -120.898438 134.21875 -122.734375 C 132.707031 -124.566406 130.65625 -126.238281 128.0625 -127.75 C 133.675781 -127.75 138.3125 -127.257812 141.96875 -126.28125 C 145.632812 -125.3125 148.4375 -123.476562 150.375 -120.78125 C 152.320312 -118.09375 152.972656 -113.726562 152.328125 -107.6875 C 148.660156 -112.4375 145.53125 -115.671875 142.9375 -117.390625 C 140.351562 -119.117188 137.550781 -119.984375 134.53125 -119.984375 C 130.4375 -119.984375 125.75 -117.609375 120.46875 -112.859375 C 115.1875 -108.117188 109.632812 -101.328125 103.8125 -92.484375 C 97.988281 -83.648438 92.328125 -73.085938 86.828125 -60.796875 C 81.335938 -48.503906 76.21875 -34.921875 71.46875 -20.046875 C 68.664062 -11.210938 65.539062 -5.175781 62.09375 -1.9375 C 58.644531 1.289062 53.898438 2.90625 47.859375 2.90625 C 37.296875 2.90625 29.640625 -1.941406 24.890625 -11.640625 C 20.148438 -21.347656 17.78125 -33.742188 17.78125 -48.828125 C 17.78125 -59.398438 18.265625 -68.617188 19.234375 -76.484375 C 20.210938 -84.359375 21.289062 -91.691406 22.46875 -98.484375 C 23.65625 -105.273438 24.734375 -112.226562 25.703125 -119.34375 C 26.679688 -126.457031 27.171875 -134.429688 27.171875 -143.265625 C 27.171875 -150.816406 28.945312 -156.421875 32.5 -160.078125 C 36.0625 -163.742188 41.289062 -165.578125 48.1875 -165.578125 C 55.300781 -165.578125 60.851562 -163.3125 64.84375 -158.78125 C 68.832031 -154.257812 70.828125 -146.929688 70.828125 -136.796875 C 70.828125 -130.546875 70.394531 -124.941406 69.53125 -119.984375 C 68.664062 -115.023438 67.640625 -109.742188 66.453125 -104.140625 C 65.273438 -98.535156 64.253906 -91.742188 63.390625 -83.765625 C 62.523438 -75.785156 62.203125 -65.648438 62.421875 -53.359375 L 50.453125 -67.265625 C 57.785156 -89.691406 66.410156 -108.285156 76.328125 -123.046875 C 86.242188 -137.816406 96.753906 -148.921875 107.859375 -156.359375 C 118.960938 -163.804688 129.796875 -167.53125 140.359375 -167.53125 C 150.273438 -167.53125 158.46875 -165.535156 164.9375 -161.546875 C 171.40625 -157.554688 176.253906 -151.84375 179.484375 -144.40625 C 182.722656 -136.96875 184.34375 -128.070312 184.34375 -117.71875 C 184.34375 -102.625 184.769531 -89.847656 185.625 -79.390625 C 186.488281 -68.941406 188 -60.484375 190.15625 -54.015625 C 192.3125 -47.546875 195.222656 -42.476562 198.890625 -38.8125 C 201.910156 -35.789062 204.175781 -32.769531 205.6875 -29.75 C 207.195312 -26.726562 207.953125 -22.847656 207.953125 -18.109375 C 207.953125 -12.503906 205.847656 -7.546875 201.640625 -3.234375 C 197.441406 1.078125 191.457031 3.234375 183.6875 3.234375 Z M 183.6875 3.234375 "/></g></g></g></svg>